<svg width="1440" height="71" viewBox="0 0 1440 71" fill="none" xmlns="http://www.w3.org/2000/svg">
<g clip-path="url(#clip0_11_230)">
<path d="M0 56.8H38.6169V28.4H77.2337V21.3H115.955V28.4H154.572V35.5H193.189V63.9H231.806V56.8H270.527H309.144V21.3H347.761V56.8H386.378V21.3H425.1V56.8H463.716V7.1H502.333V71H540.95V42.6H579.567V49.7H618.289V35.5H656.905V56.8H695.522V63.9H734.139V14.2H772.861V35.5H811.478V42.6H850.094H888.711V21.3H927.433V14.2H966.05V28.4H1004.67V21.3H1043.28V42.6H1081.9V63.9H1120.62V49.7H1159.24V56.8H1197.86V42.6H1236.47V63.9H1275.19V71H1313.81H1352.43V49.7H1391.04V28.4H1429.77V71H1468.38V7.1H1507V0H1468.38H1429.77H1391.04H1352.43H1313.81H1275.19H1236.47H1197.86H1159.24H1120.62H1081.9H1043.28H1004.67H966.05H927.433H888.711H850.094H811.478H772.861H734.139H695.522H656.905H618.289H579.567H540.95H502.333H463.716H425.1H386.378H347.761H309.144H270.527H231.806H193.189H154.572H115.955H77.2337H38.6169H0V56.8Z" fill="#242629"/>
</g>
<defs>
<clipPath id="clip0_11_230">
<rect width="1507" height="71" fill="white"/>
</clipPath>
</defs>
</svg>
